 http://img832.imageshack.us/img832/6117/houseoftherisingsun.jpg

Country.......: USA
Genre.........: Thriller, Drama, Crime, Action
Date release..: 01.06.2011 [World]
Director......: Brian Miller, Brian A Miller
Writers.......: Brian A Miller, Chuck Hustmyre
Duration......: 87 min.
More..........: http://www.imdb.com/title/tt1788383
Trailer.......: http://www.imdb.com/video/screenplay/vi4185431321
Trailer.......:

Pilot :
Ray, an ex-cop, is starting a new life looking to stay out of trouble. One evening, on Ray's watch, the nightclub he works for is robbed and the owner's son is shot dead. As his criminal past is exposed Ray hunts for the person responsible for this crime in an effort to clear his own name. Ray must get to the bottom of this as both the mob and cops start to close in on him as their target suspect.

Cats :
Dave Bautista   	 ...  	Ray
Amy Smart 	... 	Jenny Porter
Dominic Purcell 	... 	Tony
Danny Trejo 	... 	Carlos
Craig Fairbrass 	... 	Charlie Blackstone
Brian Vander Ark 	... 	Jimmy LaGrange
Roy Oraschin 	... 	Dylan Sylvester
Tim Fields 	... 	Detective Carl Landry
Debra Harrison Lowe 	... 	Priscilla Zello
Lyle Kanouse 	... 	Vinnie Marcella
John G. Carbone 	... 	Peter
Franz Klainsek 	... 	Joey
Imani Lee 	... 	Cleo
Joe Ochman 	... 	Hotel Clerk
Don Abbatiello 	... 	Bar Patron 

Data Technical :
!!! SAMPLE !!!
Audio.....: English
Subtitles.: None
Format                           : AVI
Format/Info                      : Audio Video Interleave
File size                        : 701 MiB
Duration                         : 1h 27mn
Overall bit rate                 : 1 122 Kbps
Writing application              : Noir's Hyper HD Xvid
Writing library                  : VirtualDub build 32842/release
Original source form             : Noir's Shit
Copyright                        : By Noir
Video
ID                               : 0
Format                           : MPEG-4 Visual
Format profile                   : Advanced Simple@L5
Format settings, BVOP            : Yes
Format settings, QPel            : No
Format settings, GMC             : No warppoints
Format settings, Matrix          : Default (H.263)
Muxing mode                      : Packed bitstream
Codec ID                         : XVID
Codec ID/Hint                    : XviD
Duration                         : 1h 27mn
Bit rate                         : 996 Kbps
Width                            : 640 pixels
Height                           : 360 pixels
Display aspect ratio             : 16:9
Frame rate                       : 23.976 fps
Color space                      : YUV
Chroma subsampling               : 4:2:0
Bit depth                        : 8 bits
Scan type                        : Progressive
Bits/(Pixel*Frame)               : 0.180
Stream size                      : 622 MiB (89%)
Writing library                  : XviD 63
Audio
ID                               : 1
Format                           : MPEG Audio
Format version                   : Version 1
Format profile                   : Layer 3
Mode                             : Joint stereo
Mode extension                   : MS Stereo
Codec ID                         : 55
Codec ID/Hint                    : MP3
Duration                         : 1h 27mn
Bit rate mode                    : Variable
Bit rate                         : 112 Kbps
Channel(s)                       : 2 channels
Sampling rate                    : 44.1 KHz
Stream size                      : 71.1 MiB (10%)
Alignment                        : Aligned on interleaves
Interleave, duration             : 26 ms (0.63 video frame)
Interleave, preload duration     : 516 ms
Writing library                  : LAME3.98.4

Screen : 
http://img807.imageshack.us/img807/3322/houseoftherisingsun2011.jpg 
http://img62.imageshack.us/img62/3322/houseoftherisingsun2011.jpg 
http://img69.imageshack.us/img69/3322/houseoftherisingsun2011.jpg 
http://img402.imageshack.us/img402/3359/houseoftherisingsun2011f.jpg 
http://img813.imageshack.us/img813/3322/houseoftherisingsun2011.jpg